<?xml version="1.0" encoding="iso-8859-1"?>
<!-- Generator: Adobe Illustrator 19.0.0, SVG Export Plug-In . SVG Version: 6.00 Build 0)  -->
<svg version="1.1" id="Capa_1" xmlns="http://www.w3.org/2000/svg" xmlns:xlink="http://www.w3.org/1999/xlink" x="0px" y="0px"
	 viewBox="0 0 512 512" style="enable-background:new 0 0 512 512;" xml:space="preserve">
<path style="fill:#FD003A;" d="M76,271H15c-8.291,0-15-6.709-15-15s6.709-15,15-15h61c8.291,0,15,6.709,15,15
	C91,264.291,84.291,271,76,271z"/>
<path style="fill:#E50027;" d="M497,271h-61c-8.291,0-15-6.709-15-15s6.709-15,15-15h61c8.291,0,15,6.709,15,15
	C512,264.291,505.291,271,497,271z"/>
<g>
	<path style="fill:#10BB67;" d="M301,166v30c0,8.399-6.599,15-15,15h-60c-8.401,0-15-6.601-15-15v-30c0-24.901,20.099-45,45-45
		S301,141.099,301,166z"/>
	<path style="fill:#10BB67;" d="M123.417,283.671c-4.512-6.943-2.534-16.23,4.409-20.757l30-19.497
		C160.258,241.835,163.1,241,166,241h30c8.291,0,15,6.709,15,15c0,8.291-6.709,15-15,15h-25.547l-26.279,17.08
		C137.327,292.538,127.996,290.69,123.417,283.671z"/>
</g>
<path style="fill:#0CA656;" d="M367.826,280.697l-26.279-17.08H316c-8.291,0-15-6.709-15-15s6.709-15,15-15h30
	c2.9,0,5.742,0.835,8.174,2.417l30,19.497c6.943,4.526,8.921,13.813,4.409,20.757C384.004,283.307,374.673,285.155,367.826,280.697z
	"/>
<path style="fill:#10BB67;" d="M166,391c-0.073,0-0.161,0-0.234,0c-8.291-0.132-14.897-6.958-14.766-15.234v-52.925
	c0.073-4.658,3.149-9.023,6.885-11.807l30.85-22.91c6.665-4.951,16.04-3.56,20.991,3.091c4.937,6.665,3.56,16.055-3.091,20.991
	L181,330.707v45.527C180.868,384.438,174.174,391,166,391z"/>
<path style="fill:#0CA656;" d="M346,391c-8.174,0-14.868-6.563-15-14.766v-45.527l-25.635-18.501
	c-6.65-4.937-8.027-14.326-3.091-20.991c4.951-6.621,14.326-8.013,20.991-3.091l30.85,22.91c3.735,2.783,6.812,7.148,6.885,4.424
	v52.925c0.132,15.659-6.475,22.485-14.766,22.617C346.161,391,346.073,391,346,391z"/>
<path style="fill:#10BB67;" d="M199.149,227.582c-2.256,0-4.541-0.513-6.694-1.582l-33.164-16.582
	C154.208,206.869,151,201.684,151,196v-60c0-8.291,6.709-15,15-15s15,6.709,15,15v50.728l24.873,12.437
	c7.412,3.706,10.415,12.715,6.709,20.127C209.945,224.55,204.657,227.582,199.149,227.582z"/>
<g>
	<path style="fill:#0CA656;" d="M299.462,219.35c-3.721-7.397-0.732-16.421,6.68-20.127L331,186.742V136c0-8.291,6.709-15,15-15
		s15,6.709,15,15v60c0,5.669-3.208,10.869-8.276,13.403l-33.135,16.626C312.193,229.752,303.15,226.725,299.462,219.35z"/>
	<path style="fill:#0CA656;" d="M301,166v30c0,8.399-6.599,15-15,15h-30v-90C280.901,121,301,141.099,301,166z"/>
</g>
<path style="fill:#32D736;" d="M331,226v60c0,15.599-4.799,30.3-13.2,42.299H194.2C185.799,316.3,181,301.599,181,286v-60
	c0-24.901,20.099-45,45-45h60C310.901,181,331,201.099,331,226z"/>
<g>
	<path style="fill:#10BB67;" d="M331,226v60c0,15.599-4.799,30.3-13.2,42.299H256V181h30C310.901,181,331,201.099,331,226z"/>
	<path style="fill:#10BB67;" d="M317.8,328.299C304.3,348.1,281.8,361,256,361s-48.3-12.9-61.8-32.701L256,271L317.8,328.299z"/>
</g>
<path style="fill:#0CA656;" d="M317.8,328.299C304.3,348.1,281.8,361,256,361v-90L317.8,328.299z"/>
<g>
	<path style="fill:#FD003A;" d="M256,31C131.8,31,31,131.8,31,256s100.8,226,225,226s225-101.8,225-226S380.2,31,256,31z M256,451
		c-107.401,0-195-87.601-195-195c0-107.401,87.599-195,195-195s195,87.599,195,195C451,363.399,363.401,451,256,451z"/>
	<path style="fill:#FD003A;" d="M271,15v61c0,8.399-6.599,15-15,15s-15-6.601-15-15V15c0-8.401,6.599-15,15-15S271,6.599,271,15z"/>
</g>
<g>
	<path style="fill:#E50027;" d="M481,256c0,124.2-100.8,226-225,226v-31c107.401,0,195-87.601,195-195c0-107.401-87.599-195-195-195
		V31C380.2,31,481,131.8,481,256z"/>
	<path style="fill:#E50027;" d="M271,15v61c0,8.399-6.599,15-15,15V0C264.401,0,271,6.599,271,15z"/>
</g>
<path style="fill:#FD003A;" d="M271,436v61c0,8.399-6.599,15-15,15s-15-6.601-15-15v-61c0-8.401,6.599-15,15-15S271,427.599,271,436
	z"/>
<path style="fill:#E50027;" d="M271,436v61c0,8.399-6.599,15-15,15v-91C264.401,421,271,427.599,271,436z"/>
<g>
</g>
<g>
</g>
<g>
</g>
<g>
</g>
<g>
</g>
<g>
</g>
<g>
</g>
<g>
</g>
<g>
</g>
<g>
</g>
<g>
</g>
<g>
</g>
<g>
</g>
<g>
</g>
<g>
</g>
</svg>
